<mxfile host="app.diagrams.net" modified="2023-06-02T08:04:36.327Z" agent="Mozilla/5.0 (Windows NT 10.0; Win64; x64) AppleWebKit/537.36 (KHTML, like Gecko) Chrome/113.0.0.0 Safari/537.36 Edg/113.0.1774.57" etag="BWN8Jlnz5yzptKQinmF-" version="21.3.7" type="github">
  <diagram name="第 1 页" id="gMw6khnd5oH6VZ1qFFot">
    <mxGraphModel dx="827" dy="826" grid="1" gridSize="10" guides="1" tooltips="1" connect="1" arrows="1" fold="1" page="1" pageScale="1" pageWidth="1900" pageHeight="1000" math="0" shadow="0">
      <root>
        <mxCell id="0" />
        <mxCell id="1" parent="0" />
        <mxCell id="E9j3GBNQqnZ9Nx6iouq3-1" style="edgeStyle=orthogonalEdgeStyle;rounded=0;orthogonalLoop=1;jettySize=auto;html=1;exitX=1;exitY=0.5;exitDx=0;exitDy=0;" edge="1" parent="1" source="E9j3GBNQqnZ9Nx6iouq3-2" target="E9j3GBNQqnZ9Nx6iouq3-5">
          <mxGeometry relative="1" as="geometry" />
        </mxCell>
        <mxCell id="E9j3GBNQqnZ9Nx6iouq3-2" value="创建线程对象" style="rounded=1;whiteSpace=wrap;html=1;fillColor=none;" vertex="1" parent="1">
          <mxGeometry x="120" y="320" width="120" height="60" as="geometry" />
        </mxCell>
        <mxCell id="E9j3GBNQqnZ9Nx6iouq3-3" value="新建" style="text;html=1;strokeColor=none;fillColor=none;align=center;verticalAlign=middle;whiteSpace=wrap;rounded=0;" vertex="1" parent="1">
          <mxGeometry x="150" y="380" width="60" height="30" as="geometry" />
        </mxCell>
        <mxCell id="E9j3GBNQqnZ9Nx6iouq3-4" style="edgeStyle=orthogonalEdgeStyle;rounded=0;orthogonalLoop=1;jettySize=auto;html=1;exitX=1;exitY=0.25;exitDx=0;exitDy=0;entryX=0;entryY=0.25;entryDx=0;entryDy=0;" edge="1" parent="1" source="E9j3GBNQqnZ9Nx6iouq3-5" target="E9j3GBNQqnZ9Nx6iouq3-11">
          <mxGeometry relative="1" as="geometry" />
        </mxCell>
        <mxCell id="E9j3GBNQqnZ9Nx6iouq3-5" value="有执行资格&lt;br&gt;没有执行权" style="rounded=1;whiteSpace=wrap;html=1;fillColor=none;" vertex="1" parent="1">
          <mxGeometry x="320" y="320" width="120" height="60" as="geometry" />
        </mxCell>
        <mxCell id="E9j3GBNQqnZ9Nx6iouq3-6" value="就绪" style="text;html=1;strokeColor=none;fillColor=none;align=center;verticalAlign=middle;whiteSpace=wrap;rounded=0;" vertex="1" parent="1">
          <mxGeometry x="330" y="380" width="60" height="30" as="geometry" />
        </mxCell>
        <mxCell id="E9j3GBNQqnZ9Nx6iouq3-7" value="&lt;font face=&quot;Lucida Console&quot;&gt;start()&lt;/font&gt;" style="text;html=1;strokeColor=none;fillColor=none;align=center;verticalAlign=middle;whiteSpace=wrap;rounded=0;" vertex="1" parent="1">
          <mxGeometry x="250" y="330" width="60" height="20" as="geometry" />
        </mxCell>
        <mxCell id="E9j3GBNQqnZ9Nx6iouq3-8" style="edgeStyle=orthogonalEdgeStyle;rounded=0;orthogonalLoop=1;jettySize=auto;html=1;exitX=0;exitY=0.75;exitDx=0;exitDy=0;entryX=1;entryY=0.75;entryDx=0;entryDy=0;" edge="1" parent="1" source="E9j3GBNQqnZ9Nx6iouq3-11" target="E9j3GBNQqnZ9Nx6iouq3-5">
          <mxGeometry relative="1" as="geometry" />
        </mxCell>
        <mxCell id="E9j3GBNQqnZ9Nx6iouq3-9" style="rounded=0;orthogonalLoop=1;jettySize=auto;html=1;exitX=0.5;exitY=0;exitDx=0;exitDy=0;entryX=1;entryY=0.5;entryDx=0;entryDy=0;" edge="1" parent="1" source="E9j3GBNQqnZ9Nx6iouq3-11" target="E9j3GBNQqnZ9Nx6iouq3-16">
          <mxGeometry relative="1" as="geometry" />
        </mxCell>
        <mxCell id="E9j3GBNQqnZ9Nx6iouq3-10" style="edgeStyle=orthogonalEdgeStyle;rounded=0;orthogonalLoop=1;jettySize=auto;html=1;exitX=1;exitY=0.5;exitDx=0;exitDy=0;" edge="1" parent="1" source="E9j3GBNQqnZ9Nx6iouq3-11" target="E9j3GBNQqnZ9Nx6iouq3-18">
          <mxGeometry relative="1" as="geometry" />
        </mxCell>
        <mxCell id="E9j3GBNQqnZ9Nx6iouq3-11" value="有执行资格&lt;br&gt;有执行权" style="rounded=1;whiteSpace=wrap;html=1;fillColor=none;" vertex="1" parent="1">
          <mxGeometry x="570" y="320" width="120" height="60" as="geometry" />
        </mxCell>
        <mxCell id="E9j3GBNQqnZ9Nx6iouq3-25" style="rounded=0;orthogonalLoop=1;jettySize=auto;html=1;exitX=0.5;exitY=1;exitDx=0;exitDy=0;entryX=1;entryY=0.5;entryDx=0;entryDy=0;" edge="1" parent="1" source="E9j3GBNQqnZ9Nx6iouq3-11" target="E9j3GBNQqnZ9Nx6iouq3-24">
          <mxGeometry relative="1" as="geometry" />
        </mxCell>
        <mxCell id="E9j3GBNQqnZ9Nx6iouq3-12" value="运行" style="text;html=1;strokeColor=none;fillColor=none;align=center;verticalAlign=middle;whiteSpace=wrap;rounded=0;" vertex="1" parent="1">
          <mxGeometry x="620" y="380" width="60" height="30" as="geometry" />
        </mxCell>
        <mxCell id="E9j3GBNQqnZ9Nx6iouq3-13" value="其他线程抢走 CPU 的执行权" style="text;html=1;strokeColor=none;fillColor=none;align=center;verticalAlign=middle;whiteSpace=wrap;rounded=0;" vertex="1" parent="1">
          <mxGeometry x="460" y="370" width="90" height="30" as="geometry" />
        </mxCell>
        <mxCell id="E9j3GBNQqnZ9Nx6iouq3-14" value="抢到 CPU 的执行权" style="text;html=1;strokeColor=none;fillColor=none;align=center;verticalAlign=middle;whiteSpace=wrap;rounded=0;" vertex="1" parent="1">
          <mxGeometry x="450" y="310" width="110" height="30" as="geometry" />
        </mxCell>
        <mxCell id="E9j3GBNQqnZ9Nx6iouq3-15" style="rounded=0;orthogonalLoop=1;jettySize=auto;html=1;exitX=0;exitY=0.5;exitDx=0;exitDy=0;entryX=0.5;entryY=0;entryDx=0;entryDy=0;" edge="1" parent="1" source="E9j3GBNQqnZ9Nx6iouq3-16" target="E9j3GBNQqnZ9Nx6iouq3-5">
          <mxGeometry relative="1" as="geometry" />
        </mxCell>
        <mxCell id="E9j3GBNQqnZ9Nx6iouq3-16" value="没有执行资格&lt;br&gt;没有执行权" style="rounded=1;whiteSpace=wrap;html=1;fillColor=none;" vertex="1" parent="1">
          <mxGeometry x="450" y="200" width="120" height="60" as="geometry" />
        </mxCell>
        <mxCell id="E9j3GBNQqnZ9Nx6iouq3-17" value="阻塞" style="text;html=1;strokeColor=none;fillColor=none;align=center;verticalAlign=middle;whiteSpace=wrap;rounded=0;" vertex="1" parent="1">
          <mxGeometry x="480" y="260" width="60" height="30" as="geometry" />
        </mxCell>
        <mxCell id="E9j3GBNQqnZ9Nx6iouq3-18" value="线程死亡&lt;br&gt;变成垃圾" style="rounded=1;whiteSpace=wrap;html=1;fillColor=none;" vertex="1" parent="1">
          <mxGeometry x="800" y="320" width="120" height="60" as="geometry" />
        </mxCell>
        <mxCell id="E9j3GBNQqnZ9Nx6iouq3-19" value="死亡" style="text;html=1;strokeColor=none;fillColor=none;align=center;verticalAlign=middle;whiteSpace=wrap;rounded=0;" vertex="1" parent="1">
          <mxGeometry x="830" y="380" width="60" height="30" as="geometry" />
        </mxCell>
        <mxCell id="E9j3GBNQqnZ9Nx6iouq3-20" value="&lt;font face=&quot;Lucida Console&quot;&gt;run()&lt;/font&gt; 结束" style="text;html=1;strokeColor=none;fillColor=none;align=center;verticalAlign=middle;whiteSpace=wrap;rounded=0;" vertex="1" parent="1">
          <mxGeometry x="710" y="325" width="70" height="30" as="geometry" />
        </mxCell>
        <mxCell id="E9j3GBNQqnZ9Nx6iouq3-21" value="&lt;font face=&quot;Lucida Console&quot;&gt;&lt;strike&gt;stop()&lt;/strike&gt;&lt;/font&gt;" style="text;html=1;strokeColor=none;fillColor=none;align=center;verticalAlign=middle;whiteSpace=wrap;rounded=0;" vertex="1" parent="1">
          <mxGeometry x="710" y="350" width="70" height="30" as="geometry" />
        </mxCell>
        <mxCell id="E9j3GBNQqnZ9Nx6iouq3-22" value="&lt;font face=&quot;Lucida Console&quot;&gt;sleep()&lt;/font&gt; / 其他阻塞方式" style="text;html=1;strokeColor=none;fillColor=none;align=center;verticalAlign=middle;whiteSpace=wrap;rounded=0;" vertex="1" parent="1">
          <mxGeometry x="610" y="260" width="140" height="30" as="geometry" />
        </mxCell>
        <mxCell id="E9j3GBNQqnZ9Nx6iouq3-23" value="&lt;font face=&quot;Lucida Console&quot;&gt;sleep() 方法时间到&lt;/font&gt; / 阻塞方式结束" style="text;html=1;strokeColor=none;fillColor=none;align=center;verticalAlign=middle;whiteSpace=wrap;rounded=0;" vertex="1" parent="1">
          <mxGeometry x="280" y="250" width="140" height="30" as="geometry" />
        </mxCell>
        <mxCell id="E9j3GBNQqnZ9Nx6iouq3-27" style="rounded=0;orthogonalLoop=1;jettySize=auto;html=1;exitX=0;exitY=0.5;exitDx=0;exitDy=0;entryX=0.5;entryY=1;entryDx=0;entryDy=0;" edge="1" parent="1" source="E9j3GBNQqnZ9Nx6iouq3-24" target="E9j3GBNQqnZ9Nx6iouq3-5">
          <mxGeometry relative="1" as="geometry" />
        </mxCell>
        <mxCell id="E9j3GBNQqnZ9Nx6iouq3-24" value="锁池 Lockpool" style="rounded=1;whiteSpace=wrap;html=1;fillColor=none;" vertex="1" parent="1">
          <mxGeometry x="450" y="440" width="120" height="60" as="geometry" />
        </mxCell>
        <mxCell id="E9j3GBNQqnZ9Nx6iouq3-28" value="&lt;font face=&quot;Lucida Console&quot;&gt;Synchronized&lt;/font&gt;" style="text;html=1;strokeColor=none;fillColor=none;align=center;verticalAlign=middle;whiteSpace=wrap;rounded=0;" vertex="1" parent="1">
          <mxGeometry x="590" y="420" width="100" height="30" as="geometry" />
        </mxCell>
        <mxCell id="E9j3GBNQqnZ9Nx6iouq3-30" value="找到共享对象的对象锁" style="text;html=1;strokeColor=none;fillColor=none;align=center;verticalAlign=middle;whiteSpace=wrap;rounded=0;" vertex="1" parent="1">
          <mxGeometry x="340" y="430" width="80" height="30" as="geometry" />
        </mxCell>
      </root>
    </mxGraphModel>
  </diagram>
</mxfile>
